<svg width="47" height="61" viewBox="0 0 47 61" fill="none" xmlns="http://www.w3.org/2000/svg">
<path d="M43.4283 14.2215L37.4736 11.3648L37.7823 10.7082C39.1333 7.83463 37.9182 4.38634 35.0735 3.02141L29.9446 0.560892C28.5668 -0.100416 27.0166 -0.179455 25.579 0.337091C24.1417 0.853852 22.9897 1.9052 22.3353 3.29719L22.0265 3.95377L16.0718 1.09677C12.9563 -0.397672 9.21709 0.946852 7.73702 4.09402L6.21252 7.33591C5.97055 7.85053 5.941 8.44117 6.13002 8.97769C6.31925 9.51443 6.71154 9.95322 7.22099 10.1976L23.0014 17.7686H2.12612C1.53142 17.7686 0.964141 18.0201 0.561647 18.4622C0.158939 18.9044 -0.041989 19.4963 0.00733948 20.0949L2.80184 53.967C3.12715 57.9108 6.45087 61 10.3687 61H26.0049C29.9225 61 33.2462 57.9108 33.5715 53.967L36.0418 24.025L42.0388 26.9022C42.3333 27.0435 42.6437 27.1103 42.9495 27.1103C43.7447 27.1103 44.5076 26.6575 44.8716 25.8835L46.3959 22.6418C47.8751 19.4938 46.5441 15.7166 43.4283 14.2215ZM26.1765 5.14C26.3436 4.78454 26.6379 4.51607 27.0049 4.38376C27.3725 4.25189 27.7682 4.27186 28.1201 4.44111L33.2488 6.90141C33.9755 7.25022 34.2859 8.13125 33.9408 8.86536L33.6321 9.52195L25.8676 5.7968L26.1765 5.14ZM29.3333 53.6101C29.1902 55.3448 27.728 56.704 26.0047 56.704H10.3684C8.64492 56.704 7.18271 55.3448 7.03962 53.6101L4.43712 22.064H31.936L29.3333 53.6101ZM42.554 20.7983L41.9421 22.0999L10.9661 7.2384L11.5783 5.93662C12.0522 4.92823 13.2501 4.49803 14.2475 4.97677L41.6038 18.1016C42.6018 18.5805 43.0281 19.7904 42.554 20.7983Z" fill="white"/>
</svg>
