<svg width="56" height="41" viewBox="0 0 56 41" fill="none" xmlns="http://www.w3.org/2000/svg">
<path d="M51.6878 0H4.31224C1.93755 0 0 1.89195 0 4.21075V36.7893C0 39.108 1.93755 41 4.31224 41H51.6878C54.0624 41 56 39.108 56 36.7893V4.21075C56 1.89195 54.0624 0 51.6878 0ZM51.0616 3.1148L28.2954 22.1266L5.52911 3.1148H51.0616ZM52.8101 36.7893C52.8101 37.3891 52.3021 37.8852 51.6878 37.8852H4.31224C3.69789 37.8852 3.18987 37.3891 3.18987 36.7893V5.26055L27.2557 25.3568C27.2675 25.3683 27.2911 25.3799 27.303 25.3914C27.3148 25.4029 27.3384 25.4145 27.3502 25.426C27.3857 25.4491 27.4093 25.4721 27.4447 25.4837C27.4565 25.4952 27.4684 25.4952 27.4802 25.5068C27.5274 25.5298 27.5747 25.5529 27.6219 25.576C27.6338 25.576 27.6456 25.5875 27.6574 25.5875C27.6928 25.599 27.7283 25.6221 27.7755 25.6336C27.7873 25.6336 27.811 25.6452 27.8228 25.6452C27.8582 25.6567 27.8937 25.6683 27.9291 25.6683C27.9409 25.6683 27.9646 25.6798 27.9764 25.6798C28.0118 25.6913 28.0591 25.6913 28.0945 25.7029C28.1063 25.7029 28.1181 25.7029 28.13 25.7029C28.1772 25.7029 28.2363 25.7144 28.2835 25.7144C28.3308 25.7144 28.3899 25.7144 28.4371 25.7029C28.4489 25.7029 28.4608 25.7029 28.4726 25.7029C28.508 25.7029 28.5553 25.6913 28.5907 25.6798C28.6025 25.6798 28.6262 25.6683 28.638 25.6683C28.6734 25.6567 28.7089 25.6452 28.7443 25.6452C28.7561 25.6452 28.7797 25.6336 28.7916 25.6336C28.827 25.6221 28.8624 25.6106 28.9097 25.5875C28.9215 25.5875 28.9333 25.576 28.9451 25.576C28.9924 25.5529 29.0397 25.5298 29.0869 25.5068C29.0987 25.4952 29.1105 25.4952 29.1224 25.4837C29.1578 25.4606 29.1814 25.4491 29.2169 25.426C29.2287 25.4145 29.2523 25.4029 29.2641 25.3914C29.2759 25.3799 29.2996 25.3683 29.3114 25.3568L52.8101 5.75661V36.7893Z" fill="white"/>
</svg>
