<svg width="67" height="71" viewBox="0 0 67 71" fill="none" xmlns="http://www.w3.org/2000/svg">
<path d="M65.8696 37.0727C65.8841 37.0582 65.8841 37.0582 65.8986 37.0437C65.9421 36.9857 65.9855 36.9422 66.0145 36.8843C66.029 36.8698 66.029 36.8553 66.0435 36.8408C66.0725 36.7828 66.116 36.7248 66.145 36.6669C66.145 36.6524 66.1595 36.6379 66.1595 36.6379C66.1884 36.5799 66.2174 36.5219 66.2464 36.4495C66.2464 36.435 66.2464 36.435 66.2609 36.4205C66.2899 36.3625 66.3044 36.2901 66.3334 36.2176C66.3334 36.2031 66.3334 36.1886 66.3479 36.1886C66.3624 36.1161 66.3913 36.0582 66.3913 35.9857C66.3913 35.9567 66.3913 35.9422 66.4058 35.9132C66.4203 35.8553 66.4203 35.7973 66.4348 35.7393C66.4493 35.6524 66.4493 35.5799 66.4493 35.493C66.4493 35.406 66.4493 35.3335 66.4348 35.2466C66.4348 35.1886 66.4203 35.1306 66.4058 35.0727C66.4058 35.0437 66.4058 35.0292 66.3913 35.0002C66.3769 34.9277 66.3624 34.8698 66.3479 34.7973C66.3479 34.7828 66.3479 34.7683 66.3334 34.7683C66.3189 34.6959 66.2899 34.6379 66.2609 34.5654C66.2609 34.5509 66.2609 34.5509 66.2464 34.5364C66.2174 34.4785 66.1884 34.406 66.1595 34.348C66.1595 34.3335 66.145 34.319 66.145 34.319C66.116 34.2611 66.087 34.2031 66.0435 34.1451C66.029 34.1306 66.029 34.1161 66.0145 34.1016C65.9711 34.0437 65.9421 33.9857 65.8986 33.9422C65.8841 33.9277 65.8841 33.9277 65.8696 33.9132C65.8116 33.8553 65.7682 33.7828 65.6957 33.7248L51.3624 19.406C50.3913 18.435 48.8116 18.435 47.8406 19.406C46.8696 20.377 46.8696 21.9567 47.8406 22.9277L57.9276 33.0147H17.8261C16.4493 33.0147 15.3334 34.1306 15.3334 35.493C15.3334 36.8698 16.4493 37.9857 17.8261 37.9857H57.9421L47.9276 48.0002C46.9566 48.9712 46.9566 50.5509 47.9276 51.5219C48.4058 52.0002 49.0435 52.2466 49.6812 52.2466C50.3189 52.2466 50.9566 52.0002 51.4348 51.5219L65.6812 37.2756C65.7537 37.1886 65.8116 37.1306 65.8696 37.0727Z" fill="white"/>
<path d="M14.0435 4.97101H32.5943C33.9711 4.97101 35.087 3.85507 35.087 2.49275C35.087 1.11594 33.9711 0 32.5943 0H14.0435C6.60875 0 0.550781 6.05797 0.550781 13.4928V57.5072C0.550781 64.942 6.60875 71 14.0435 71H32.2899C33.6667 71 34.7827 69.8841 34.7827 68.5217C34.7827 67.1449 33.6667 66.029 32.2899 66.029H14.0435C9.34788 66.029 5.5218 62.2029 5.5218 57.5072V13.4928C5.53629 8.78261 9.34788 4.97101 14.0435 4.97101Z" fill="white"/>
</svg>
