<svg width="53" height="54" viewBox="0 0 53 54" fill="none" xmlns="http://www.w3.org/2000/svg">
<path d="M42.6058 32.6248C41.3723 31.9211 40.0954 31.6987 39.0089 32.0003C38.1931 32.2265 37.528 32.7427 37.0795 33.4947C36.0936 34.674 34.8698 36.0525 34.574 36.2661C32.286 37.8166 30.4658 37.6339 28.49 35.6581L17.3872 24.5563C15.4105 22.5795 15.2287 20.7593 16.7773 18.4752C16.9938 18.1755 18.3722 16.9527 19.5515 15.9658C20.3036 15.5173 20.8198 14.8522 21.0459 14.0364C21.3466 12.9509 21.1252 11.6739 20.4157 10.4299C20.2485 10.1438 16.2679 3.40244 12.6005 1.46241C10.7387 0.477409 8.48743 0.81573 6.99785 2.30531L4.54356 4.7567C0.663493 8.63677 -0.741027 13.034 0.366736 17.8256C1.29084 21.8197 3.98388 26.07 8.3724 30.4576L22.5868 44.6729C28.1565 50.2427 33.4691 53.0401 38.341 53.0401C41.9185 53.0401 45.2592 51.5302 48.2886 48.5017L50.741 46.0494C52.2305 44.5598 52.5698 42.3085 51.5839 40.4468C49.6429 36.7784 42.9025 32.7988 42.6058 32.6248ZM49.3741 44.6826L46.9218 47.1349C40.572 53.4828 32.8447 52.1953 23.9546 43.3061L9.73922 29.0908C5.61073 24.9623 3.09168 21.0252 2.25071 17.3906C1.28891 13.2331 2.48657 9.54927 5.91039 6.12449L8.36274 3.67214C8.91082 3.12502 9.63193 2.8389 10.3637 2.8389C10.8151 2.8389 11.2713 2.94716 11.6938 3.17142C14.8769 4.85626 18.7077 11.3433 18.7405 11.3984C19.1745 12.1592 19.3398 12.9528 19.1823 13.5212C19.0856 13.8692 18.8691 14.134 18.5211 14.3293L18.3761 14.4298C17.5516 15.1181 15.5893 16.7826 15.1785 17.3887C14.5869 18.2625 14.1944 19.1209 13.9885 19.9648C13.3013 18.5941 12.7455 17.0069 12.5628 15.2466C12.5077 14.7169 12.0321 14.3428 11.5014 14.3844C10.9707 14.4404 10.5841 14.9151 10.6392 15.4467C11.3371 22.1677 16.5637 26.5427 16.786 26.7254C16.8102 26.7447 16.8382 26.7525 16.8633 26.7689L27.1222 37.0278C27.1657 37.0713 27.2111 37.11 27.2546 37.1525C27.2885 37.2018 27.3107 37.2569 27.3552 37.3013C27.5379 37.4821 31.9022 41.716 38.5672 42.4081C38.601 42.411 38.6348 42.4129 38.6677 42.4129C39.1568 42.4129 39.5763 42.0427 39.6285 41.5468C39.6836 41.0152 39.2979 40.5405 38.7663 40.4845C36.7228 40.2728 34.9123 39.6735 33.4034 38.9785C34.1429 38.7561 34.8949 38.3869 35.6576 37.8707C36.2646 37.4589 37.9292 35.4976 38.6165 34.6731L38.717 34.5271C38.9123 34.1801 39.1771 33.9636 39.5251 33.8659C40.0935 33.7122 40.8871 33.8737 41.6382 34.3009C41.7029 34.3396 48.19 38.1704 49.8749 41.3535C50.4606 42.4583 50.2596 43.7971 49.3741 44.6826Z" fill="white"/>
</svg>
