<svg width="40" height="39" viewBox="0 0 40 39" fill="none" xmlns="http://www.w3.org/2000/svg">
<path d="M39.0336 36.7244C35.4667 36.7244 32.5639 33.8216 32.5639 30.2547C32.5639 29.7202 32.1318 29.2881 31.5972 29.2881C31.0627 29.2881 30.6306 29.7202 30.6306 30.2547C30.6306 34.8888 34.3995 38.6577 39.0336 38.6577C39.5681 38.6577 40.0002 38.2256 40.0002 37.691C40.0002 37.1565 39.5672 36.7244 39.0336 36.7244Z" fill="white"/>
<path d="M38.3126 34.4606C38.8471 34.4606 39.2792 34.0285 39.2792 33.494C39.2792 32.9594 38.8471 32.5274 38.3126 32.5274C37.4562 32.5274 36.7612 31.8314 36.7612 30.9759C36.7612 30.4414 36.3291 30.0093 35.7945 30.0093C35.26 30.0093 34.8279 30.4414 34.8279 30.9759C34.8269 32.8976 36.39 34.4606 38.3126 34.4606Z" fill="white"/>
<path d="M1.33529 2.89225C4.90313 2.89225 7.80497 5.79506 7.80497 9.36194C7.80497 9.89649 8.23802 10.3286 8.7716 10.3286C9.30519 10.3286 9.73824 9.89649 9.73824 9.36194C9.73824 4.72789 5.96837 0.958984 1.33529 0.958984C0.801705 0.958984 0.368652 1.39107 0.368652 1.92562C0.368652 2.46017 0.800738 2.89225 1.33529 2.89225Z" fill="white"/>
<path d="M1.0896 6.12288C1.0896 6.65743 1.52265 7.08952 2.05623 7.08952C2.91171 7.08952 3.60672 7.7855 3.60672 8.64097C3.60672 9.17552 4.03977 9.6076 4.57335 9.6076C5.10693 9.6076 5.53998 9.17552 5.53998 8.64097C5.53998 6.7193 3.97694 5.15625 2.05623 5.15625C1.52265 5.15625 1.0896 5.58834 1.0896 6.12288Z" fill="white"/>
</svg>
