<svg width="74" height="72" viewBox="0 0 74 72" fill="none" xmlns="http://www.w3.org/2000/svg">
<path d="M36.0679 33.8433L2.07995 33.8433C0.924422 33.8433 -5.11832e-07 34.7677 -4.61322e-07 35.9232C-4.10812e-07 37.0788 0.924422 38.0032 2.07995 38.0032L36.0679 38.0032C37.0385 42.8256 41.3063 46.477 46.4214 46.477C51.5365 46.477 55.8043 42.8256 56.7749 38.0032L71.9046 38.0032C73.0602 38.0032 73.9846 37.0788 73.9846 35.9232C73.9846 34.7677 73.0602 33.8433 71.9046 33.8433L56.7749 33.8433C55.8043 29.0209 51.5365 25.3694 46.4214 25.3694C41.3217 25.3694 37.0385 29.0055 36.0679 33.8433ZM52.8153 35.9232C52.8153 39.4514 49.9496 42.3171 46.4214 42.3171C42.8932 42.3171 40.0275 39.4514 40.0275 35.9232C40.0275 32.395 42.8932 29.5293 46.4214 29.5293C49.9496 29.5293 52.8153 32.395 52.8153 35.9232Z" fill="white"/>
<path d="M18.6271 59.3111L2.07995 59.3111C0.924422 59.3111 -5.11832e-07 60.2355 -4.61322e-07 61.391C-4.10812e-07 62.5465 0.924422 63.471 2.07995 63.471L18.6271 63.471C19.5978 68.2934 23.8655 71.9448 28.9806 71.9448C34.0958 71.9448 38.3635 68.2934 39.3342 63.471L71.9046 63.4709C73.0602 63.4709 73.9846 62.5465 73.9846 61.391C73.9846 60.2355 73.0602 59.3111 71.9046 59.3111L39.3188 59.3111C38.3481 54.4886 34.0804 50.8372 28.9652 50.8372C23.8501 50.8372 19.5978 54.4887 18.6271 59.3111ZM35.3746 61.391C35.3746 64.9192 32.5088 67.7849 28.9806 67.7849C25.4524 67.7849 22.5867 64.9192 22.5867 61.391C22.5867 57.8628 25.4524 54.9971 28.9806 54.9971C32.5088 54.9971 35.3746 57.8782 35.3746 61.391Z" fill="white"/>
<path d="M18.6271 8.52931L2.07995 8.52931C0.924422 8.52931 -5.11832e-07 9.45374 -4.61322e-07 10.6093C-4.10812e-07 11.7648 0.924422 12.6892 2.07995 12.6892L18.6271 12.6892C19.5978 17.5116 23.8655 21.1631 28.9806 21.1631C34.0958 21.1631 38.3635 17.5116 39.3342 12.6892L71.9201 12.6892C73.0756 12.6892 74 11.7648 74 10.6093C74 9.45373 73.0756 8.52931 71.9201 8.52931L39.3188 8.52931C38.3481 3.70691 34.0804 0.0554432 28.9652 0.0554435C23.8501 0.0554437 19.5978 3.6915 18.6271 8.52931ZM35.3746 10.6093C35.3746 14.1375 32.5088 17.0032 28.9806 17.0032C25.4524 17.0032 22.5867 14.1375 22.5867 10.6093C22.5867 7.08105 25.4524 4.21534 28.9806 4.21534C32.5088 4.21534 35.3746 7.08105 35.3746 10.6093Z" fill="white"/>
</svg>
